<!DOCTYPE svg PUBLIC "-//W3C//DTD SVG 1.1//EN" "http://www.w3.org/Graphics/SVG/1.1/DTD/svg11.dtd">

<!-- Uploaded to: SVG Repo, www.svgrepo.com, Transformed by: SVG Repo Mixer Tools -->
<svg height="178px" width="178px" version="1.1" id="Layer_1" xmlns="http://www.w3.org/2000/svg" xmlns:xlink="http://www.w3.org/1999/xlink" viewBox="-51.2 -51.2 614.40 614.40" xml:space="preserve" fill="#000000" transform="rotate(-45)" stroke="#000000" stroke-width="0.0051200099999999995">

<g id="SVGRepo_bgCarrier" stroke-width="0" transform="translate(71.68014,71.68014), scale(0.72)"/>

<g id="SVGRepo_tracerCarrier" stroke-linecap="round" stroke-linejoin="round" stroke="#CCCCCC" stroke-width="1.0240019999999999"/>

<g id="SVGRepo_iconCarrier"> <path style="fill:#333E48;" d="M436.946,209.486h-53.733v-75.708c0-14.814-12.052-26.866-26.867-26.866H155.652 c-14.814,0-26.866,12.052-26.866,26.866v75.708H75.052v-75.708c0-44.443,36.158-80.599,80.599-80.599h200.695 c44.443,0,80.599,36.157,80.599,80.599V209.486z"/> <path style="fill:#E3659C;" d="M483.511,237.991c2.217-11.612-5.642-21.112-17.463-21.112H45.954 c-11.821,0-19.679,9.5-17.462,21.112l38.135,199.718c2.218,11.612,13.703,21.112,25.524,21.112h327.701 c11.821,0,23.307-9.5,25.523-21.112L483.511,237.991z"/> <path style="fill:#FFf;" d="M60.087,403.465h391.826l3.078-16.12H57.01L60.087,403.465z M51.47,358.331h409.062l3.079-16.12 H48.392L51.47,358.331z M39.773,297.077l3.078,16.12h426.298l3.078-16.12H39.773z"/> <path style="fill:#E3659C;" d="M503.94,201.834c0-8.866-7.254-16.12-16.12-16.12H24.18c-8.866,0-16.12,7.254-16.12,16.12v30.09 c0,8.866,7.254,16.12,16.12,16.12h463.64c8.866,0,16.12-7.254,16.12-16.12V201.834z"/> <g> <circle style="fill:#FFfFFFFF;" cx="410.079" cy="216.877" r="7.393"/> <circle style="fill:#FFfFFFFF;" cx="101.91" cy="216.877" r="7.393"/> </g> <path style="fill:#1E252B;" d="M487.82,177.654h-42.814v-43.875c0-48.887-39.773-88.659-88.659-88.659H155.652 c-48.887,0-88.659,39.772-88.659,88.659v43.875H24.18c-13.333,0-24.18,10.847-24.18,24.18v30.09 c0,13.186,10.611,23.934,23.742,24.169l34.968,183.128c2.962,15.511,17.651,27.66,33.441,27.66h327.701 c15.79,0,30.479-12.15,33.44-27.66l34.968-183.128c13.129-0.236,23.739-10.983,23.739-24.169v-30.09 C512,188.501,501.152,177.654,487.82,177.654z M83.112,133.778c0-39.999,32.541-72.54,72.54-72.54h200.695 c39.999,0,72.54,32.541,72.54,72.54v43.875h-37.613v-43.875c0-19.258-15.667-34.926-34.926-34.926H155.652 c-19.258,0-34.926,15.669-34.926,34.926v43.875H83.112V133.778z M375.153,133.778v43.875H136.845v-43.875 c0-10.369,8.437-18.807,18.807-18.807h200.695C366.716,114.971,375.153,123.409,375.153,133.778z M437.457,436.198 c-1.481,7.758-9.707,14.563-17.606,14.563h-327.7c-7.898,0-16.125-6.806-17.607-14.564L40.155,256.103h431.692L437.457,436.198z M495.88,231.924c0,4.445-3.615,8.06-8.06,8.06H24.18c-4.445,0-8.06-3.615-8.06-8.06v-30.09c0-4.445,3.615-8.06,8.06-8.06h463.64 c4.445,0,8.06,3.615,8.06,8.06V231.924z"/> </g>

</svg>